#N canvas 341 95 977 648 12;
#X obj 60 31 ctlin 16 1;
#X obj 60 100 send 1effectHi;
#X obj 43 145 ctlin 17 1;
#X obj 40 221 send 1effectMid;
#X obj 50 271 ctlin 18 1;
#X obj 50 340 send 1effectLow;
#X obj 52 461 ctlin 19 1;
#X obj 52 501 send 1vol;
#X obj 55 374 notein 1;
#X obj 198 22 ctlin 20 1;
#X obj 181 136 ctlin 21 1;
#X obj 198 91 send 2effectHi;
#X obj 178 212 send 2effectMid;
#X obj 188 262 ctlin 22 1;
#X obj 190 452 ctlin 23 1;
#X obj 190 492 send 2vol;
#X obj 188 331 send 2effectLow;
#X obj 342 27 ctlin 24 1;
#X obj 342 96 send 3effectHi;
#X obj 325 141 ctlin 25 1;
#X obj 322 217 send 3effectMid;
#X obj 332 267 ctlin 26 1;
#X obj 332 336 send 3effectLow;
#X obj 334 457 ctlin 27 1;
#X obj 334 497 send 3vol;
#X obj 492 27 ctlin 28 1;
#X obj 492 96 send 4effectHi;
#X obj 475 141 ctlin 29 1;
#X obj 472 217 send 4effectMid;
#X obj 482 267 ctlin 30 1;
#X obj 482 336 send 4effectLow;
#X obj 484 457 ctlin 31 1;
#X obj 484 497 send 4vol;
#X connect 0 0 1 0;
#X connect 2 0 3 0;
#X connect 4 0 5 0;
#X connect 6 0 7 0;
#X connect 9 0 11 0;
#X connect 10 0 12 0;
#X connect 13 0 16 0;
#X connect 14 0 15 0;
#X connect 17 0 18 0;
#X connect 19 0 20 0;
#X connect 21 0 22 0;
#X connect 23 0 24 0;
#X connect 25 0 26 0;
#X connect 27 0 28 0;
#X connect 29 0 30 0;
#X connect 31 0 32 0;
