#N canvas 0 38 1512 916 12;
#X obj 910 808 dac~;
#X obj 62 69 bng 19 250 50 0 empty empty empty 0 -10 0 12 #fcfcfc #000000 #000000;
#N canvas 0 22 450 278 (subpatch) 0;
#X array brickloop 279816 float 0;
#X coords 0 1 279815 -1 200 140 1 0 0;
#X restore 300 11 graph;
#X msg 18 128 read -resize brick1.wav brickloop;
#X obj 18 168 soundfiler;
#X floatatom 18 208 10 0 0 0 - - - 0;
#X obj 38 336 tabread4~ brickloop;
#X obj 45 282 *~;
#X obj 235 316 phasor~ 0.5;
#X obj 218 208 hsl 162 19 0.01 2 0 0 empty empty empty -2 -10 0 12 #fcfcfc #000000 #000000 0 0;
#X obj 924 741 *~;
#X obj 567 69 bng 19 250 50 0 empty empty empty 0 -10 0 12 #fcfcfc #000000 #000000;
#N canvas 0 22 450 278 (subpatch) 0;
#X array motorloop 2.36382e+06 float 2;
#X coords 0 1 2.36382e+06 -1 200 140 1 0 0;
#X restore 781 11 graph;
#X obj 523 168 soundfiler;
#X floatatom 523 208 19 0 0 0 - - - 0;
#X obj 735 322 *~;
#X obj 745 208 hsl 162 19 0 2 0 0 empty empty empty -2 -10 0 12 #fcfcfc #000000 #000000 0 0;
#X msg 523 128 read -resize motor.wav motorloop;
#X obj 610 383 tabread4~ motorloop;
#X floatatom 777 256 5 0 0 0 - - - 0;
#X obj 38 376 *~;
#X obj 638 524 *~;
#X obj 735 282 phasor~ 0.19;
#X obj 610 490 lop~;
#X obj 633 423 mtof;
#X obj 703 490 hsl 162 19 0 100 0 0 empty empty empty -2 -10 0 12 #fcfcfc #000000 #000000 0 1;
#X floatatom 256 256 5 0 0 0 - - - 0;
#X obj 1069 51 bng 19 250 50 0 empty empty empty 0 -10 0 12 #fcfcfc #000000 #000000;
#N canvas 0 22 450 278 (subpatch) 0;
#X array carloop 520176 float 2;
#X coords 0 1 520176 -1 200 140 1 0 0;
#X restore 1284 11 graph;
#X obj 1020 134 soundfiler;
#X floatatom 1020 174 19 0 0 0 - - - 0;
#X obj 1232 296 *~;
#X obj 1228 168 hsl 162 19 0 1 0 0 empty empty empty -2 -10 0 12 #fcfcfc #000000 #000000 0 1;
#X floatatom 1275 208 5 0 0 0 - - - 0;
#X obj 1242 493 *~;
#X obj 1232 256 phasor~ 0.19;
#X obj 1279 466 hsl 162 19 0 20 0 0 empty empty empty -2 -10 0 12 #fcfcfc #000000 #000000 0 1;
#X msg 1020 94 read -resize cars.wav carloop;
#X obj 1232 336 tabread4~ carloop;
#X obj 1564 47 bng 19 250 50 0 empty empty empty 0 -10 0 12 #fcfcfc #000000 #000000;
#N canvas 0 22 450 278 (subpatch) 0;
#X array carlosloop 169759 float 2;
#X coords 0 1 169759 -1 200 140 1 0 0;
#X restore 1784 11 graph;
#X obj 1520 128 soundfiler;
#X floatatom 1520 168 19 0 0 0 - - - 0;
#X obj 1732 336 *~;
#X obj 1730 440 *~;
#X obj 1732 256 phasor~ 0.19;
#X obj 1787 348 hsl 162 19 0 100 0 0 empty empty empty -2 -10 0 12 #fcfcfc #000000 #000000 0 1;
#X msg 1520 69 read -resize carlos.wav carlosloop;
#X obj 1729 379 tabread4~ carlosloop;
#X obj 1045 890 hsl 162 19 0 1.2 0 0 empty empty empty -2 -10 0 12 #fcfcfc #000000 #000000 0 1;
#X obj 38 416 throw~ brick;
#X obj 713 662 catch~ brick;
#X obj 603 678 throw~ motor;
#X obj 826 662 catch~ motor;
#X obj 1234 598 throw~ cars;
#X obj 931 662 catch~ cars;
#X obj 1035 662 catch~ carlos;
#X obj 1724 556 throw~ carlos;
#X obj 1732 296 +~;
#X obj 1874 208 hsl 162 19 0 1 0 0 empty empty empty -2 -10 0 12 #fcfcfc #000000 #000000 0 1;
#X obj 1168 662 catch~ fork;
#X obj 257 386 hsl 162 19 0 20 0 0 empty empty empty -2 -10 0 12 #fcfcfc #000000 #000000 0 1;
#X obj 898 490 hsl 162 19 10 1000 0 0 empty empty empty -2 -10 0 12 #fcfcfc #000000 #000000 0 0;
#X obj 985 597 hsl 162 19 0 5 0 0 empty empty empty -2 -10 0 12 #fcfcfc #000000 #000000 0 0;
#X obj 700 530 tgl 19 0 empty empty empty 0 -10 0 12 #fcfcfc #000000 #000000 0 1;
#X obj 1702 662 bng 19 250 50 0 empty empty empty 0 -10 0 12 #fcfcfc #000000 #000000;
#N canvas 0 22 450 278 (subpatch) 0;
#X array stepsloop 565218 float 2;
#X coords 0 1 565218 -1 200 140 1 0 0;
#X restore 1948 585 graph;
#X obj 1658 735 soundfiler;
#X floatatom 1658 775 19 0 0 0 - - - 0;
#X obj 1870 903 *~;
#X obj 1866 775 hsl 162 19 0 0.7 0 0 empty empty empty -2 -10 0 12 #fcfcfc #000000 #000000 0 0;
#X floatatom 1913 808 5 0 0 0 - - - 0;
#X obj 1867 1109 *~;
#X obj 1870 863 phasor~ 0.19;
#X obj 1869 1022 lop~;
#X obj 1901 988 mtof;
#X obj 1947 1048 hsl 162 19 0 127 0 0 empty empty empty -2 -10 0 12 #fcfcfc #000000 #000000 0 1;
#X msg 1658 695 read -resize steps.wav stepsloop;
#X obj 1870 943 tabread4~ stepsloop;
#X obj 1903 1287 throw~ steps;
#X obj 1297 662 catch~ steps;
#X obj 745 527 tgl 19 0 empty empty empty 0 -10 0 12 #fcfcfc #000000 #000000 0 1;
#X obj 618 641 delayPedal;
#X obj 2198 619 bng 19 250 50 0 empty empty empty 0 -10 0 12 #fcfcfc #000000 #000000;
#N canvas 0 22 450 278 (subpatch) 0;
#X array okloop 165663 float 2;
#X coords 0 1 165663 -1 200 140 1 0 0;
#X restore 2456 600 graph;
#X obj 2192 721 soundfiler;
#X floatatom 2192 775 19 0 0 0 - - - 0;
#X obj 2404 903 *~;
#X obj 2400 741 hsl 162 19 0.1 0.5 0 0 empty empty empty -2 -10 0 12 #fcfcfc #000000 #000000 0 0;
#X floatatom 2447 808 5 0 0 0 - - - 0;
#X obj 2412 1070 *~;
#X obj 2404 863 phasor~ 0.19;
#X obj 2412 1030 lop~;
#X obj 2435 988 mtof;
#X obj 2522 1030 hsl 162 19 0 100 0 0 empty empty empty -2 -10 0 12 #fcfcfc #000000 #000000 0 1;
#X msg 2192 681 read -resize ok.wav okloop;
#X obj 2404 943 tabread4~ okloop;
#X obj 2420 1261 throw~ ok;
#X obj 1402 662 catch~ ok;
#X obj 2468 1139 tgl 19 0 empty empty empty 0 -10 0 12 #fcfcfc #000000 #000000 0 1;
#X obj 2519 1144 tgl 19 0 empty empty empty 0 -10 0 12 #fcfcfc #000000 #000000 0 1;
#X msg 128 544 read -resize die.wav dieloop;
#X obj 124 585 soundfiler;
#X obj 128 504 bng 19 250 50 0 empty empty empty 0 -10 0 12 #fcfcfc #000000 #000000;
#N canvas 0 22 450 278 (subpatch) 0;
#X array dieloop 74850 float 2;
#X coords 0 1 74850 -1 200 140 1;
#X restore 366 474 graph;
#X obj 97 628 tabplay~ dieloop;
#X obj 1311 717 catch~ die;
#X obj 56 559 bng 19 250 50 0 empty empty empty 0 -10 0 12 #fcfcfc #000000 #000000;
#X obj 94 717 *~;
#X obj 160 662 hsl 162 19 0 500 0 0 empty empty empty -2 -10 0 12 #fcfcfc #000000 #000000 0 1;
#X obj 94 757 throw~ die;
#X obj 77 11 loadbang;
#X obj 576 11 loadbang;
#X obj 128 464 loadbang;
#X obj 1069 11 loadbang;
#X obj 1585 11 loadbang;
#X obj 2198 579 loadbang;
#X obj 1717 600 loadbang;
#X obj 212 168 ctlin 14 1;
#X obj 327 256 ctlin 3 1;
#X obj 215 168 midiscale 0 2;
#X obj 1014 848 midiscale 0 1.2;
#X obj 327 316 midiscale 0 20;
#X obj 776 189 midiscale 0 2;
#X obj 921 423 bang;
#X obj 965 423 ctlin 5 1;
#X obj 965 463 midiscale 10 1000;
#X obj 921 383 ctlin 25 1;
#X obj 1012 514 ctlin 16 1;
#X obj 1163 11 ctlin 17 1;
#X obj 1276 386 ctlin 6 1;
#X obj 1276 426 midiscale 0 20;
#X obj 1518 393 hsl 162 19 10 1000 0 0 empty empty empty -2 -10 0 12 #fcfcfc #000000 #000000 0 0;
#X obj 1473 583 hsl 162 19 0 5 0 0 empty empty empty -2 -10 0 12 #fcfcfc #000000 #000000 0 0;
#X obj 1498 325 bang;
#X obj 1542 365 midiscale 10 1000;
#X obj 1294 507 tgl 19 0 empty empty empty 0 -10 0 12 #fcfcfc #000000 #000000 0 1;
#X obj 1331 499 tgl 19 0 empty empty empty 0 -10 0 12 #fcfcfc #000000 #000000 0 1;
#X obj 1560 435 ctlin 18 1;
#X obj 1542 325 ctlin 7 1;
#X obj 1498 285 ctlin 27 1;
#X obj 1242 566 delayPedal3;
#X obj 1534 522 midiscale 0 5;
#X obj 1012 554 midiscale 0 5;
#X obj 825 336 i 150;
#X obj 872 274 hsl 162 19 0 127 0 0 empty empty empty -2 -10 0 12 #fcfcfc #000000 #000000 0 1;
#X obj 1014 808 ctlin 60 1;
#X obj 1708 31 ctlin 19 1;
#X obj 1704 131 midiscale 0 1;
#X obj 1864 245 ctlin 8 1;
#X obj 1858 288 midiscale 0 100;
#X obj 1727 522 delayPedal4;
#X obj 1773 460 tgl 19 0 empty empty empty 0 -10 0 12 #fcfcfc #000000 #000000 0 1;
#X obj 1816 467 tgl 19 0 empty empty empty 0 -10 0 12 #fcfcfc #000000 #000000 0 1;
#X obj 1976 398 bang;
#X obj 1968 348 ctlin 28 1;
#X obj 1954 487 i 2;
#X obj 1895 463 i 500;
#X obj 2549 946 ctlin 9 1;
#X obj 2375 561 ctlin 20 1;
#X obj 2352 603 midiscale 0.1 0.5;
#X obj 2693 1043 bang;
#X obj 2671 1132 i 2;
#X obj 2612 1108 i 500;
#X obj 2685 993 ctlin 29 1;
#X obj 2420 1221 delayPedal5;
#X obj 2526 988 midiscale 0 100;
#X obj 756 422 midiscale 0 100;
#X obj 2559 895 int 150;
#X obj 2024 1000 midiscale 0 127;
#X obj 2050 870 int 150;
#X obj 26 501 bang;
#X obj 26 461 ctlin 64 1;
#X obj 1163 51 midiscale 0 1;
#X obj 2091 1154 osc~ 1;
#X obj 2015 1073 ctlin 30 1;
#X obj 2016 1103 bng 19 250 50 0 empty empty empty 0 -10 0 12 #fcfcfc #000000 #000000;
#X obj 2019 1148 tgl 19 0 empty empty empty 0 -10 0 12 #fcfcfc #000000 #000000 0 1;
#X obj 1868 1169 *~;
#X obj 1943 1125 tgl 19 0 empty empty empty 0 -10 0 12 #fcfcfc #000000 #000000 0 1;
#X obj 2030 1195 *~;
#X obj 2030 1231 *~;
#X obj 2145 1123 hsl 162 19 0 5 0 0 empty empty empty -2 -10 0 12 #fcfcfc #000000 #000000 0 1;
#X obj 2155 1090 midiscale 0 5;
#X obj 1819 599 receive 1effectHi;
#X obj 2047 958 receive 1vol;
#X obj 2178 1048 receive 1effectLow;
#X obj 744 160 receive 2effectHi;
#X obj 763 383 receive 2vol;
#X connect 1 0 3 0;
#X connect 3 0 4 0;
#X connect 4 0 5 0;
#X connect 5 0 7 1;
#X connect 6 0 20 0;
#X connect 7 0 6 0;
#X connect 8 0 7 0;
#X connect 9 0 8 0;
#X connect 9 0 26 0;
#X connect 10 0 0 0;
#X connect 10 0 0 1;
#X connect 11 0 17 0;
#X connect 11 0 144 0;
#X connect 13 0 14 0;
#X connect 14 0 15 1;
#X connect 15 0 18 0;
#X connect 16 0 19 0;
#X connect 16 0 22 0;
#X connect 17 0 13 0;
#X connect 18 0 23 0;
#X connect 20 0 50 0;
#X connect 21 0 82 0;
#X connect 22 0 15 0;
#X connect 23 0 21 0;
#X connect 24 0 23 1;
#X connect 25 0 21 1;
#X connect 27 0 37 0;
#X connect 29 0 30 0;
#X connect 30 0 31 1;
#X connect 31 0 38 0;
#X connect 32 0 33 0;
#X connect 32 0 35 0;
#X connect 34 0 141 0;
#X connect 35 0 31 0;
#X connect 36 0 34 1;
#X connect 37 0 29 0;
#X connect 38 0 34 0;
#X connect 39 0 47 0;
#X connect 39 0 152 0;
#X connect 41 0 42 0;
#X connect 42 0 43 1;
#X connect 43 0 48 0;
#X connect 44 0 151 0;
#X connect 45 0 58 0;
#X connect 46 0 44 1;
#X connect 47 0 41 0;
#X connect 48 0 44 0;
#X connect 49 0 10 1;
#X connect 51 0 10 0;
#X connect 53 0 10 0;
#X connect 55 0 10 0;
#X connect 56 0 10 0;
#X connect 58 0 43 0;
#X connect 59 0 58 1;
#X connect 60 0 10 0;
#X connect 61 0 20 1;
#X connect 62 0 82 3;
#X connect 63 0 82 4;
#X connect 64 0 82 1;
#X connect 65 0 77 0;
#X connect 65 0 170 0;
#X connect 65 0 179 0;
#X connect 67 0 68 0;
#X connect 68 0 69 1;
#X connect 69 0 78 0;
#X connect 70 0 71 0;
#X connect 70 0 73 0;
#X connect 72 0 178 0;
#X connect 72 0 180 0;
#X connect 73 0 69 0;
#X connect 74 0 72 0;
#X connect 75 0 74 1;
#X connect 76 0 72 1;
#X connect 77 0 67 0;
#X connect 78 0 74 0;
#X connect 80 0 10 0;
#X connect 81 0 82 2;
#X connect 82 0 52 0;
#X connect 83 0 95 0;
#X connect 83 0 168 0;
#X connect 85 0 86 0;
#X connect 86 0 87 1;
#X connect 87 0 96 0;
#X connect 88 0 89 0;
#X connect 88 0 91 0;
#X connect 90 0 165 0;
#X connect 91 0 87 0;
#X connect 92 0 90 0;
#X connect 93 0 92 1;
#X connect 94 0 90 1;
#X connect 95 0 85 0;
#X connect 96 0 92 0;
#X connect 98 0 10 0;
#X connect 99 0 165 1;
#X connect 100 0 165 2;
#X connect 101 0 102 0;
#X connect 103 0 101 0;
#X connect 105 0 108 0;
#X connect 106 0 10 0;
#X connect 107 0 105 0;
#X connect 108 0 110 0;
#X connect 109 0 108 1;
#X connect 111 0 1 0;
#X connect 112 0 11 0;
#X connect 112 0 64 0;
#X connect 113 0 103 0;
#X connect 114 0 27 0;
#X connect 114 0 35 0;
#X connect 114 0 136 0;
#X connect 115 0 39 0;
#X connect 116 0 83 0;
#X connect 116 0 99 0;
#X connect 117 0 65 0;
#X connect 118 0 120 0;
#X connect 119 0 122 0;
#X connect 120 0 9 0;
#X connect 121 0 49 0;
#X connect 122 0 61 0;
#X connect 123 0 16 0;
#X connect 124 0 64 0;
#X connect 124 0 81 0;
#X connect 125 0 126 0;
#X connect 126 0 62 0;
#X connect 127 0 124 0;
#X connect 128 0 143 0;
#X connect 129 0 173 0;
#X connect 130 0 131 0;
#X connect 131 0 36 0;
#X connect 132 0 141 3;
#X connect 133 0 141 4;
#X connect 134 0 136 0;
#X connect 134 0 137 0;
#X connect 135 0 132 0;
#X connect 136 0 141 1;
#X connect 137 0 141 2;
#X connect 138 0 142 0;
#X connect 139 0 135 0;
#X connect 140 0 134 0;
#X connect 141 0 54 0;
#X connect 142 0 133 0;
#X connect 143 0 63 0;
#X connect 144 0 24 0;
#X connect 145 0 24 0;
#X connect 146 0 121 0;
#X connect 147 0 148 0;
#X connect 148 0 59 0;
#X connect 149 0 150 0;
#X connect 150 0 46 0;
#X connect 151 0 57 0;
#X connect 152 0 151 1;
#X connect 153 0 151 2;
#X connect 154 0 152 0;
#X connect 154 0 153 0;
#X connect 154 0 156 0;
#X connect 154 0 157 0;
#X connect 155 0 154 0;
#X connect 156 0 151 4;
#X connect 157 0 151 3;
#X connect 158 0 166 0;
#X connect 159 0 160 0;
#X connect 160 0 88 0;
#X connect 161 0 162 0;
#X connect 161 0 163 0;
#X connect 161 0 100 0;
#X connect 161 0 99 0;
#X connect 162 0 165 4;
#X connect 163 0 165 3;
#X connect 164 0 161 0;
#X connect 165 0 97 0;
#X connect 166 0 94 0;
#X connect 167 0 25 0;
#X connect 168 0 93 0;
#X connect 169 0 76 0;
#X connect 170 0 75 0;
#X connect 171 0 107 0;
#X connect 172 0 171 0;
#X connect 173 0 32 0;
#X connect 174 0 180 1;
#X connect 175 0 176 0;
#X connect 176 0 177 0;
#X connect 176 0 179 0;
#X connect 177 0 181 1;
#X connect 178 0 79 0;
#X connect 179 0 178 1;
#X connect 180 0 181 0;
#X connect 181 0 79 0;
#X connect 182 0 174 0;
#X connect 183 0 182 0;
#X connect 184 0 70 0;
#X connect 185 0 169 0;
#X connect 186 0 183 0;
#X connect 187 0 123 0;
#X connect 188 0 167 0;
