#N canvas 0 41 1512 822 12;
#X obj 107 45 loadbang;
#X floatatom 210 140 5 0 0 0 - - - 0;
#X obj 161 185 bng 19 250 50 0 empty empty empty 0 -10 0 12 #fcfcfc #000000 #000000;
#X obj 161 236 /;
#X floatatom 159 268 5 0 0 0 - - - 0;
#X obj 157 316 send 4th_time;
#X text 115 11 BPM;
#X obj 94 428 receive ON;
#X obj 193 427 receive 4th_time;
#X obj 193 451 * 4;
#X floatatom 193 475 5 0 0 0 - - - 0;
#X obj 215 500 send whole_time;
#X obj 158 505 metro;
#X obj 158 529 bng 30 250 50 0 empty empty empty 0 -10 0 12 #fcfcfc #000000 #000000;
#X obj 158 564 send whole_note;
#X obj 360 426 receive ON;
#X obj 459 425 receive 4th_time;
#X floatatom 459 473 5 0 0 0 - - - 0;
#X obj 424 503 metro;
#X obj 424 527 bng 30 250 50 0 empty empty empty 0 -10 0 12 #fcfcfc #000000 #000000;
#X obj 459 449 * 1;
#X obj 424 562 send 4th_note;
#X text 178 378 Clock Multiplication;
#X obj 16 38 tgl 40 0 empty empty empty 0 -10 0 12 #fcfcfc #000000 #000000 0 1;
#X obj 18 99 send ON;
#X text 16 12 ON/OFF;
#X obj 673 35 receive ON;
#X obj 673 59 sel 0;
#X obj 673 83 bng 19 250 50 0 empty empty empty 0 -10 0 12 #fcfcfc #000000 #000000;
#X obj 583 31 loadbang;
#X obj 821 119 r whole_note;
#X obj 821 143 bng 19 250 50 0 empty empty empty 0 -10 0 12 #fcfcfc #000000 #000000;
#X obj 821 167 int 1;
#X msg 673 107 -1;
#X obj 950 234 + 1;
#X floatatom 822 230 5 0 0 0 - - - 0;
#X obj 822 253 % 2;
#X obj 822 301 sel 1;
#X obj 822 277 + 1;
#X obj 822 325 bng 19 250 50 0 empty empty empty 0 -10 0 12 #fcfcfc #000000 #000000;
#X obj 824 420 tgl 19 0 empty empty empty 0 -10 0 12 #fcfcfc #000000 #000000 0 1;
#X obj 707 294 r ON;
#X obj 707 318 sel 0;
#X msg 754 371 1;
#X obj 754 318 loadbang;
#X obj 824 444 send Chord;
#X text 796 13 Sequencer;
#X obj 799 611 r Chord;
#X obj 799 635 tgl 19 0 empty empty empty 0 -10 0 12 #fcfcfc #000000 #000000 0 1;
#X obj 799 659 sel 0;
#X obj 798 710 bng 19 250 50 0 empty empty empty 0 -10 0 12 #fcfcfc #000000 #000000;
#X obj 837 710 bng 19 250 50 0 empty empty empty 0 -10 0 12 #fcfcfc #000000 #000000;
#X msg 788 769 130.81;
#X text 776 746 C;
#X msg 862 765 87.31;
#X text 875 740 F;
#X floatatom 792 810 5 0 0 0 - - - 0;
#X obj 792 833 phasor~;
#X obj 792 857 lop~ 100;
#X obj 794 911 *~;
#X obj 792 964 send~ Bass;
#X obj 934 618 r ON;
#X obj 934 642 sel 1;
#X obj 934 666 bng 19 250 50 0 empty empty empty 0 -10 0 12 #fcfcfc #000000 #000000;
#X msg 935 701 1 500;
#X obj 927 843 line;
#X obj 1039 617 r whole_time;
#X obj 1039 641 * 2;
#X floatatom 1039 665 5 0 0 0 - - - 0;
#X obj 1039 688 - 100;
#X obj 1003 735 delay;
#X msg 1003 777 0 100;
#X obj 1154 631 r ON;
#X obj 1154 655 sel 0;
#X obj 1154 679 delay 5;
#X text 805 561 Bass;
#X obj 185 821 r~ Bass;
#X obj 277 1014 dac~;
#X msg 212 99 60;
#X obj 305 794 r~ Ambient_Pad;
#X obj 328 898 freeverb~;
#X obj 429 793 loadbang;
#X msg 429 817 1;
#X msg 429 841 wet \$1;
#X obj 496 793 loadbang;
#X obj 567 792 loadbang;
#X msg 496 841 dry \$1;
#X msg 496 817 0.5;
#X msg 567 840 roomsize \$1;
#X msg 567 816 0.95;
#X obj 1475 607 r whole_note;
#X obj 1473 632 bng 19 250 50 0 empty empty empty 0 -10 0 12 #fcfcfc #000000 #000000;
#N canvas 170 334 450 300 Chords_Scales 0;
#X obj 109 21 inlet;
#X obj 239 64 bng 19 250 50 0 empty empty empty 0 -10 0 12 #fcfcfc #000000 #000000;
#X obj 239 88 random 8;
#X floatatom 239 112 5 0 0 0 - - - 0;
#X obj 106 167 sel 0;
#X obj 155 167 sel 1;
#X obj 205 167 sel 2;
#X obj 253 167 sel 3;
#X obj 302 167 sel 4;
#X obj 352 167 sel 5;
#X obj 404 166 sel 6;
#X obj 453 166 sel 7;
#X msg 106 191 60;
#X msg 155 191 62;
#X msg 205 191 64;
#X msg 253 191 65;
#X msg 302 191 67;
#X msg 352 191 69;
#X msg 404 190 71;
#X msg 453 190 72;
#X floatatom 241 255 5 0 0 0 - - - 0;
#X obj 241 278 mtof;
#X floatatom 241 302 5 0 0 0 - - - 0;
#X obj 241 325 outlet;
#X connect 0 0 1 0;
#X connect 1 0 2 0;
#X connect 2 0 3 0;
#X connect 3 0 4 0;
#X connect 3 0 5 0;
#X connect 3 0 6 0;
#X connect 3 0 7 0;
#X connect 3 0 8 0;
#X connect 3 0 9 0;
#X connect 3 0 10 0;
#X connect 3 0 11 0;
#X connect 4 0 12 0;
#X connect 5 0 13 0;
#X connect 6 0 14 0;
#X connect 7 0 15 0;
#X connect 8 0 16 0;
#X connect 9 0 17 0;
#X connect 10 0 18 0;
#X connect 11 0 19 0;
#X connect 12 0 20 0;
#X connect 13 0 20 0;
#X connect 14 0 20 0;
#X connect 15 0 20 0;
#X connect 16 0 20 0;
#X connect 17 0 20 0;
#X connect 18 0 20 0;
#X connect 19 0 20 0;
#X connect 20 0 21 0;
#X connect 21 0 22 0;
#X connect 22 0 23 0;
#X restore 1475 655 pd Chords_Scales;
#X floatatom 1475 679 5 0 0 0 - - - 0;
#X obj 1475 718 phasor~;
#X obj 1476 821 lop~ 100;
#X obj 1475 851 *~;
#X obj 1475 886 *~ 0.5;
#X obj 1475 927 s~ Ambient_Pad;
#X obj 1549 718 * 1.001;
#X floatatom 1552 745 5 0 0 0 - - - 0;
#X obj 1552 768 phasor~;
#X obj 1696 647 bng 19 250 50 0 empty empty empty 0 -10 0 12 #fcfcfc #000000 #000000;
#X msg 1681 715 1 500;
#X obj 1685 764 line;
#X obj 1746 690 delay;
#X msg 1747 735 0 500;
#X obj 1757 603 r whole_time;
#X floatatom 1757 627 5 0 0 0 - - - 0;
#X obj 1757 650 - 500;
#X obj 1858 604 r ON;
#X obj 1858 628 sel 0;
#X obj 1858 652 delay 5;
#X obj 236 965 *~ 0.5;
#X obj 325 962 *~ 0.5;
#X text 1586 524 Synth Voice;
#X msg 106 104 1000;
#X connect 0 0 116 0;
#X connect 1 0 2 0;
#X connect 1 0 3 1;
#X connect 2 0 3 0;
#X connect 3 0 4 0;
#X connect 4 0 5 0;
#X connect 7 0 12 0;
#X connect 8 0 9 0;
#X connect 9 0 10 0;
#X connect 10 0 11 0;
#X connect 10 0 12 1;
#X connect 12 0 13 0;
#X connect 13 0 14 0;
#X connect 15 0 18 0;
#X connect 16 0 20 0;
#X connect 17 0 18 1;
#X connect 18 0 19 0;
#X connect 19 0 21 0;
#X connect 20 0 17 0;
#X connect 23 0 24 0;
#X connect 23 0 78 0;
#X connect 26 0 27 0;
#X connect 27 0 28 0;
#X connect 28 0 33 0;
#X connect 29 0 28 0;
#X connect 30 0 31 0;
#X connect 31 0 32 0;
#X connect 32 0 34 0;
#X connect 32 0 35 0;
#X connect 33 0 32 0;
#X connect 34 0 32 1;
#X connect 35 0 36 0;
#X connect 36 0 38 0;
#X connect 37 0 39 0;
#X connect 38 0 37 0;
#X connect 39 0 40 0;
#X connect 40 0 45 0;
#X connect 41 0 42 0;
#X connect 42 0 43 0;
#X connect 43 0 40 0;
#X connect 44 0 43 0;
#X connect 47 0 48 0;
#X connect 48 0 49 0;
#X connect 49 0 50 0;
#X connect 49 1 51 0;
#X connect 50 0 52 0;
#X connect 51 0 54 0;
#X connect 52 0 56 0;
#X connect 54 0 56 0;
#X connect 56 0 57 0;
#X connect 57 0 58 0;
#X connect 58 0 59 0;
#X connect 59 0 60 0;
#X connect 61 0 62 0;
#X connect 62 0 63 0;
#X connect 63 0 64 0;
#X connect 64 0 65 0;
#X connect 65 0 59 1;
#X connect 66 0 67 0;
#X connect 67 0 68 0;
#X connect 68 0 69 0;
#X connect 69 0 70 1;
#X connect 70 0 71 0;
#X connect 71 0 65 0;
#X connect 72 0 73 0;
#X connect 73 0 74 0;
#X connect 74 0 71 0;
#X connect 76 0 113 0;
#X connect 76 0 114 0;
#X connect 78 0 1 0;
#X connect 79 0 80 0;
#X connect 79 0 80 1;
#X connect 80 0 113 0;
#X connect 80 0 114 0;
#X connect 81 0 82 0;
#X connect 82 0 83 0;
#X connect 83 0 80 0;
#X connect 84 0 87 0;
#X connect 85 0 89 0;
#X connect 86 0 80 0;
#X connect 87 0 86 0;
#X connect 88 0 80 0;
#X connect 89 0 88 0;
#X connect 90 0 91 0;
#X connect 90 0 102 0;
#X connect 91 0 92 0;
#X connect 92 0 93 0;
#X connect 93 0 94 0;
#X connect 93 0 99 0;
#X connect 94 0 95 0;
#X connect 95 0 96 0;
#X connect 96 0 97 0;
#X connect 97 0 98 0;
#X connect 99 0 100 0;
#X connect 100 0 101 0;
#X connect 101 0 95 0;
#X connect 102 0 103 0;
#X connect 102 0 105 0;
#X connect 103 0 104 0;
#X connect 104 0 96 1;
#X connect 105 0 106 0;
#X connect 106 0 104 0;
#X connect 107 0 108 0;
#X connect 108 0 109 0;
#X connect 109 0 105 1;
#X connect 110 0 111 0;
#X connect 111 0 112 0;
#X connect 112 0 106 0;
#X connect 113 0 77 0;
#X connect 114 0 77 1;
#X connect 116 0 3 0;
